<svg width="1512" height="770" viewBox="0 0 1512 770" fill="none" xmlns="http://www.w3.org/2000/svg">
<path d="M1806.62 389.588C1792.73 456.42 1748.56 513.278 1674.12 560.161C1599.67 607.044 1526.34 606.046 1454.12 557.169C1381.89 508.291 1318.28 451.433 1263.28 386.595C1208.28 321.757 1196.89 246.695 1229.12 161.408C1261.34 76.1212 1324.95 26.2459 1419.95 11.782C1514.95 -2.68182 1594.12 11.5326 1657.45 54.4254C1720.78 97.3182 1764.95 147.194 1789.95 204.051C1814.95 260.909 1820.5 322.755 1806.62 389.588Z" stroke="#FA6B51" stroke-width="7"/>
<path d="M220.832 283.759C277.317 336.182 326.295 404.338 316.819 480.253C307.564 554.401 241.272 603.77 176.126 641.906C115.334 677.494 45.2364 700.142 -22.0018 678.6C-89.5891 656.947 -135.185 598.793 -161.557 533.72C-188.973 466.073 -200.061 390.085 -164.892 326.021C-127.854 258.554 -57.9698 212.649 19.3543 204.177C95.0046 195.888 165.405 232.317 220.832 283.759Z" fill="#FF637F"/>
<g clip-path="url(#clip0_0_1)">
<path d="M265.683 642.328C225.559 692.343 174.341 709.557 112.029 693.969C49.718 678.381 -0.19986 645.606 -37.7244 595.643C-75.2488 545.681 -90.7796 488.099 -84.3166 422.897C-77.8536 357.695 -46.034 315.82 11.1423 297.274C68.3187 278.727 128.374 259.1 191.308 238.394C254.243 217.688 297.674 239.018 321.602 302.384C345.53 365.75 352.224 425.745 341.682 482.369C331.141 538.992 305.808 592.312 265.683 642.328Z" stroke="white" stroke-width="7"/>
<rect x="445" y="348" width="698" height="301" fill="#C4C4C4"/>
</g>
<defs>
<clipPath id="clip0_0_1">
<rect width="443.405" height="493.719" fill="white" transform="matrix(0.855683 0.517501 -0.499564 0.866277 70.644 112)"/>
</clipPath>
</defs>
</svg>
