<svg width="657" height="688" viewBox="0 0 657 688" fill="none" xmlns="http://www.w3.org/2000/svg">
<g clip-path="url(#clip0_115_2)">
<path d="M463.796 554.855C421.895 606.944 368.226 624.718 302.791 608.177C237.356 591.636 184.856 557.19 145.292 504.838C105.727 452.487 89.208 392.264 95.7338 324.172C102.26 256.079 135.48 212.461 195.394 193.319C255.308 174.177 318.239 153.919 384.186 132.544C450.133 111.17 495.783 133.632 521.135 199.931C546.487 266.231 553.744 328.937 542.906 388.051C532.068 447.165 505.698 502.766 463.796 554.855Z" stroke="white" stroke-width="7"/>
</g>
<defs>
<clipPath id="clip0_115_2">
<rect width="466.25" height="514.641" fill="white" transform="matrix(0.855683 0.517501 -0.499564 0.866277 257.096 0)"/>
</clipPath>
</defs>
</svg>
